<mxfile host="Electron" agent="Mozilla/5.0 (Windows NT 10.0; Win64; x64) AppleWebKit/537.36 (KHTML, like Gecko) draw.io/24.7.17 Chrome/128.0.6613.36 Electron/32.0.1 Safari/537.36" version="24.7.17">
  <diagram id="C5RBs43oDa-KdzZeNtuy" name="Page-1">
    <mxGraphModel dx="1863" dy="606" grid="1" gridSize="10" guides="1" tooltips="1" connect="1" arrows="1" fold="1" page="1" pageScale="1" pageWidth="827" pageHeight="1169" math="0" shadow="0">
      <root>
        <mxCell id="WIyWlLk6GJQsqaUBKTNV-0" />
        <mxCell id="WIyWlLk6GJQsqaUBKTNV-1" parent="WIyWlLk6GJQsqaUBKTNV-0" />
        <mxCell id="MmZ6asuVpfd6eezpaRIW-18" value="监听服务" style="rounded=0;whiteSpace=wrap;html=1;fillColor=#60a917;fontColor=#ffffff;strokeColor=#2D7600;" parent="WIyWlLk6GJQsqaUBKTNV-1" vertex="1">
          <mxGeometry x="70" y="110" width="70" height="400" as="geometry" />
        </mxCell>
        <mxCell id="MmZ6asuVpfd6eezpaRIW-19" value="依赖注入的服务" style="rounded=0;whiteSpace=wrap;html=1;fillColor=#ffe6cc;strokeColor=#d79b00;" parent="WIyWlLk6GJQsqaUBKTNV-1" vertex="1">
          <mxGeometry x="200" y="100" width="1010" height="80" as="geometry" />
        </mxCell>
        <mxCell id="MmZ6asuVpfd6eezpaRIW-20" value="异常处理&lt;div&gt;中间件&lt;/div&gt;" style="rounded=0;whiteSpace=wrap;html=1;fillColor=#f5f5f5;fontColor=#333333;strokeColor=#666666;" parent="WIyWlLk6GJQsqaUBKTNV-1" vertex="1">
          <mxGeometry x="200" y="220" width="70" height="290" as="geometry" />
        </mxCell>
        <mxCell id="MmZ6asuVpfd6eezpaRIW-22" value="Router Map" style="rounded=0;whiteSpace=wrap;html=1;fillColor=#dae8fc;strokeColor=#6c8ebf;" parent="WIyWlLk6GJQsqaUBKTNV-1" vertex="1">
          <mxGeometry x="986" y="220" width="80" height="290" as="geometry" />
        </mxCell>
        <mxCell id="MmZ6asuVpfd6eezpaRIW-23" value="映射的方法" style="rounded=0;whiteSpace=wrap;html=1;fillColor=#f8cecc;strokeColor=#b85450;" parent="WIyWlLk6GJQsqaUBKTNV-1" vertex="1">
          <mxGeometry x="1126" y="220" width="80" height="290" as="geometry" />
        </mxCell>
        <mxCell id="MmZ6asuVpfd6eezpaRIW-24" value="数据库" style="shape=cylinder3;whiteSpace=wrap;html=1;boundedLbl=1;backgroundOutline=1;size=15;fillColor=#d5e8d4;strokeColor=#82b366;" parent="WIyWlLk6GJQsqaUBKTNV-1" vertex="1">
          <mxGeometry x="1266" y="280" width="60" height="150" as="geometry" />
        </mxCell>
        <mxCell id="MmZ6asuVpfd6eezpaRIW-25" value="身份验证&lt;div&gt;中间件&lt;br&gt;&lt;/div&gt;" style="rounded=0;whiteSpace=wrap;html=1;fillColor=#f5f5f5;fontColor=#333333;strokeColor=#666666;" parent="WIyWlLk6GJQsqaUBKTNV-1" vertex="1">
          <mxGeometry x="460" y="220" width="66" height="290" as="geometry" />
        </mxCell>
        <mxCell id="MmZ6asuVpfd6eezpaRIW-26" value="授权&lt;div&gt;中间件&lt;br&gt;&lt;/div&gt;" style="rounded=0;whiteSpace=wrap;html=1;fillColor=#f5f5f5;fontColor=#333333;strokeColor=#666666;" parent="WIyWlLk6GJQsqaUBKTNV-1" vertex="1">
          <mxGeometry x="586" y="220" width="70" height="290" as="geometry" />
        </mxCell>
        <mxCell id="MmZ6asuVpfd6eezpaRIW-27" value="路由匹配&lt;div&gt;中间件&lt;br&gt;&lt;/div&gt;" style="rounded=0;whiteSpace=wrap;html=1;fillColor=#f5f5f5;fontColor=#333333;strokeColor=#666666;" parent="WIyWlLk6GJQsqaUBKTNV-1" vertex="1">
          <mxGeometry x="330" y="220" width="70" height="290" as="geometry" />
        </mxCell>
        <mxCell id="MmZ6asuVpfd6eezpaRIW-28" value="终结点处理&lt;div&gt;中间件&lt;br&gt;&lt;/div&gt;" style="rounded=0;whiteSpace=wrap;html=1;fillColor=#f5f5f5;fontColor=#333333;strokeColor=#666666;" parent="WIyWlLk6GJQsqaUBKTNV-1" vertex="1">
          <mxGeometry x="846" y="220" width="80" height="290" as="geometry" />
        </mxCell>
        <mxCell id="MmZ6asuVpfd6eezpaRIW-29" value="&lt;b&gt;自定义&lt;/b&gt;&lt;div&gt;&lt;b&gt;中间件&lt;/b&gt;&lt;/div&gt;&lt;div&gt;&lt;b&gt;……&lt;/b&gt;&lt;/div&gt;" style="rounded=0;whiteSpace=wrap;html=1;fillColor=#f5f5f5;fontColor=#333333;strokeColor=#666666;" parent="WIyWlLk6GJQsqaUBKTNV-1" vertex="1">
          <mxGeometry x="716" y="220" width="70" height="290" as="geometry" />
        </mxCell>
        <mxCell id="MmZ6asuVpfd6eezpaRIW-30" value="" style="shape=actor;whiteSpace=wrap;html=1;fillColor=#e3c800;fontColor=#000000;strokeColor=#B09500;" parent="WIyWlLk6GJQsqaUBKTNV-1" vertex="1">
          <mxGeometry x="-80" y="290" width="60" height="110" as="geometry" />
        </mxCell>
        <mxCell id="MmZ6asuVpfd6eezpaRIW-31" value="Http Request" style="shape=singleArrow;whiteSpace=wrap;html=1;fillColor=#d5e8d4;strokeColor=#82b366;" parent="WIyWlLk6GJQsqaUBKTNV-1" vertex="1">
          <mxGeometry x="-10" y="260" width="80" height="40" as="geometry" />
        </mxCell>
        <mxCell id="MmZ6asuVpfd6eezpaRIW-32" value="Http Respose" style="shape=singleArrow;direction=west;whiteSpace=wrap;html=1;fillColor=#e1d5e7;strokeColor=#9673a6;" parent="WIyWlLk6GJQsqaUBKTNV-1" vertex="1">
          <mxGeometry x="-10" y="400" width="80" height="40" as="geometry" />
        </mxCell>
        <mxCell id="MmZ6asuVpfd6eezpaRIW-35" value="Http Request" style="shape=singleArrow;whiteSpace=wrap;html=1;fillColor=#d5e8d4;strokeColor=#82b366;" parent="WIyWlLk6GJQsqaUBKTNV-1" vertex="1">
          <mxGeometry x="140" y="260" width="60" height="40" as="geometry" />
        </mxCell>
        <mxCell id="MmZ6asuVpfd6eezpaRIW-38" value="Http Request" style="shape=singleArrow;whiteSpace=wrap;html=1;fillColor=#d5e8d4;strokeColor=#82b366;" parent="WIyWlLk6GJQsqaUBKTNV-1" vertex="1">
          <mxGeometry x="270" y="260" width="60" height="40" as="geometry" />
        </mxCell>
        <mxCell id="MmZ6asuVpfd6eezpaRIW-41" value="Http Request" style="shape=singleArrow;whiteSpace=wrap;html=1;fillColor=#d5e8d4;strokeColor=#82b366;" parent="WIyWlLk6GJQsqaUBKTNV-1" vertex="1">
          <mxGeometry x="400" y="260" width="60" height="40" as="geometry" />
        </mxCell>
        <mxCell id="MmZ6asuVpfd6eezpaRIW-44" value="Http Request" style="shape=singleArrow;whiteSpace=wrap;html=1;fillColor=#d5e8d4;strokeColor=#82b366;" parent="WIyWlLk6GJQsqaUBKTNV-1" vertex="1">
          <mxGeometry x="526" y="260" width="60" height="40" as="geometry" />
        </mxCell>
        <mxCell id="MmZ6asuVpfd6eezpaRIW-46" value="Http Request" style="shape=singleArrow;whiteSpace=wrap;html=1;fillColor=#d5e8d4;strokeColor=#82b366;" parent="WIyWlLk6GJQsqaUBKTNV-1" vertex="1">
          <mxGeometry x="656" y="260" width="60" height="40" as="geometry" />
        </mxCell>
        <mxCell id="MmZ6asuVpfd6eezpaRIW-47" value="Http Request" style="shape=singleArrow;whiteSpace=wrap;html=1;fillColor=#d5e8d4;strokeColor=#82b366;" parent="WIyWlLk6GJQsqaUBKTNV-1" vertex="1">
          <mxGeometry x="786" y="260" width="60" height="40" as="geometry" />
        </mxCell>
        <mxCell id="MmZ6asuVpfd6eezpaRIW-48" value="查找" style="shape=singleArrow;whiteSpace=wrap;html=1;fillColor=#d5e8d4;strokeColor=#82b366;" parent="WIyWlLk6GJQsqaUBKTNV-1" vertex="1">
          <mxGeometry x="926" y="260" width="60" height="40" as="geometry" />
        </mxCell>
        <mxCell id="MmZ6asuVpfd6eezpaRIW-49" value="调用" style="shape=singleArrow;whiteSpace=wrap;html=1;fillColor=#d5e8d4;strokeColor=#82b366;" parent="WIyWlLk6GJQsqaUBKTNV-1" vertex="1">
          <mxGeometry x="1066" y="260" width="60" height="40" as="geometry" />
        </mxCell>
        <mxCell id="MmZ6asuVpfd6eezpaRIW-51" value="查询" style="shape=singleArrow;whiteSpace=wrap;html=1;fillColor=#d5e8d4;strokeColor=#82b366;" parent="WIyWlLk6GJQsqaUBKTNV-1" vertex="1">
          <mxGeometry x="1206" y="300" width="60" height="40" as="geometry" />
        </mxCell>
        <mxCell id="MmZ6asuVpfd6eezpaRIW-52" value="Http Respose" style="shape=singleArrow;direction=west;whiteSpace=wrap;html=1;fillColor=#e1d5e7;strokeColor=#9673a6;" parent="WIyWlLk6GJQsqaUBKTNV-1" vertex="1">
          <mxGeometry x="140" y="400" width="60" height="40" as="geometry" />
        </mxCell>
        <mxCell id="MmZ6asuVpfd6eezpaRIW-53" value="Http Respose" style="shape=singleArrow;direction=west;whiteSpace=wrap;html=1;fillColor=#e1d5e7;strokeColor=#9673a6;" parent="WIyWlLk6GJQsqaUBKTNV-1" vertex="1">
          <mxGeometry x="270" y="400" width="60" height="40" as="geometry" />
        </mxCell>
        <mxCell id="MmZ6asuVpfd6eezpaRIW-54" value="Http Respose" style="shape=singleArrow;direction=west;whiteSpace=wrap;html=1;fillColor=#e1d5e7;strokeColor=#9673a6;" parent="WIyWlLk6GJQsqaUBKTNV-1" vertex="1">
          <mxGeometry x="400" y="400" width="60" height="40" as="geometry" />
        </mxCell>
        <mxCell id="MmZ6asuVpfd6eezpaRIW-55" value="Http Respose" style="shape=singleArrow;direction=west;whiteSpace=wrap;html=1;fillColor=#e1d5e7;strokeColor=#9673a6;" parent="WIyWlLk6GJQsqaUBKTNV-1" vertex="1">
          <mxGeometry x="526" y="400" width="60" height="40" as="geometry" />
        </mxCell>
        <mxCell id="MmZ6asuVpfd6eezpaRIW-56" value="Http Respose" style="shape=singleArrow;direction=west;whiteSpace=wrap;html=1;fillColor=#e1d5e7;strokeColor=#9673a6;" parent="WIyWlLk6GJQsqaUBKTNV-1" vertex="1">
          <mxGeometry x="656" y="400" width="60" height="40" as="geometry" />
        </mxCell>
        <mxCell id="MmZ6asuVpfd6eezpaRIW-57" value="Http Respose" style="shape=singleArrow;direction=west;whiteSpace=wrap;html=1;fillColor=#e1d5e7;strokeColor=#9673a6;" parent="WIyWlLk6GJQsqaUBKTNV-1" vertex="1">
          <mxGeometry x="786" y="400" width="60" height="40" as="geometry" />
        </mxCell>
        <mxCell id="MmZ6asuVpfd6eezpaRIW-58" value="返回值" style="shape=singleArrow;direction=west;whiteSpace=wrap;html=1;fillColor=#e1d5e7;strokeColor=#9673a6;" parent="WIyWlLk6GJQsqaUBKTNV-1" vertex="1">
          <mxGeometry x="926" y="400" width="60" height="40" as="geometry" />
        </mxCell>
        <mxCell id="MmZ6asuVpfd6eezpaRIW-59" value="返回值" style="shape=singleArrow;direction=west;whiteSpace=wrap;html=1;fillColor=#e1d5e7;strokeColor=#9673a6;" parent="WIyWlLk6GJQsqaUBKTNV-1" vertex="1">
          <mxGeometry x="1066" y="400" width="60" height="40" as="geometry" />
        </mxCell>
        <mxCell id="MmZ6asuVpfd6eezpaRIW-60" value="查询结果" style="shape=singleArrow;direction=west;whiteSpace=wrap;html=1;fillColor=#e1d5e7;strokeColor=#9673a6;" parent="WIyWlLk6GJQsqaUBKTNV-1" vertex="1">
          <mxGeometry x="1206" y="345" width="60" height="40" as="geometry" />
        </mxCell>
        <mxCell id="MmZ6asuVpfd6eezpaRIW-63" value="" style="shape=doubleArrow;direction=south;whiteSpace=wrap;html=1;" parent="WIyWlLk6GJQsqaUBKTNV-1" vertex="1">
          <mxGeometry x="670" y="180" width="60" height="30" as="geometry" />
        </mxCell>
        <mxCell id="MmZ6asuVpfd6eezpaRIW-64" value="提供服务" style="text;html=1;align=center;verticalAlign=middle;resizable=0;points=[];autosize=1;strokeColor=none;fillColor=none;" parent="WIyWlLk6GJQsqaUBKTNV-1" vertex="1">
          <mxGeometry x="725" y="180" width="70" height="30" as="geometry" />
        </mxCell>
      </root>
    </mxGraphModel>
  </diagram>
</mxfile>
